2015002_C4_04_grf
version=1
nRows=15
nColumns=19
inDegrees=no
endheader
time	ground_force_1_vx	ground_force_1_vy	ground_force_1_vz	ground_force_1_px	ground_force_1_py	ground_force_1_pz	ground_force_1_mx	ground_force_1_my	ground_force_1_mz	ground_force_2_vx	ground_force_2_vy	ground_force_2_vz	ground_force_2_px	ground_force_2_py	ground_force_2_pz	ground_force_2_mx	ground_force_2_my	ground_force_2_mz
      0.84000000	      0.00000000	      0.00000000	      0.00000000	      0.00000000	      0.00000000	      0.00000000	      0.00000000	      0.00000000	      0.00000000	    -31.33010492	    584.67576653	    -42.45165065	      0.81025693	      0.00000000	     -0.11639348	      0.00000000	      1.52014854	      0.00000000
      0.84100000	      0.00000000	      0.00000000	      0.00000000	      0.00000000	      0.00000000	      0.00000000	      0.00000000	      0.00000000	      0.00000000	    -30.92325851	    583.39809626	    -42.31865779	      0.81053404	      0.00000000	     -0.11624591	      0.00000000	      1.52654162	      0.00000000
      0.84200000	      0.00000000	      0.00000000	      0.00000000	      0.00000000	      0.00000000	      0.00000000	      0.00000000	      0.00000000	      0.00000000	    -30.51898628	    582.14369416	    -42.18787365	      0.81081027	      0.00000000	     -0.11609876	      0.00000000	      1.53331251	      0.00000000
      0.84300000	      0.00000000	      0.00000000	      0.00000000	      0.00000000	      0.00000000	      0.00000000	      0.00000000	      0.00000000	      0.00000000	    -30.11774551	    580.91866225	    -42.06017703	      0.81108537	      0.00000000	     -0.11595208	      0.00000000	      1.54051507	      0.00000000
      0.84400000	      0.00000000	      0.00000000	      0.00000000	      0.00000000	      0.00000000	      0.00000000	      0.00000000	      0.00000000	      0.00000000	    -29.71878089	    579.71723378	    -41.93520546	      0.81135958	      0.00000000	     -0.11580573	      0.00000000	      1.54803113	      0.00000000
      0.84500000	      0.00000000	      0.00000000	      0.00000000	      0.00000000	      0.00000000	      0.00000000	      0.00000000	      0.00000000	      0.00000000	    -29.32247426	    578.54564488	    -41.81396160	      0.81163267	      0.00000000	     -0.11565981	      0.00000000	      1.55590001	      0.00000000
      0.84600000	      0.00000000	      0.00000000	      0.00000000	      0.00000000	      0.00000000	      0.00000000	      0.00000000	      0.00000000	      0.00000000	    -28.92814763	    577.39799470	    -41.69595391	      0.81190488	      0.00000000	     -0.11551417	      0.00000000	      1.56402152	      0.00000000
      0.84700000	      0.00000000	      0.00000000	      0.00000000	      0.00000000	      0.00000000	      0.00000000	      0.00000000	      0.00000000	      0.00000000	    -28.53612136	    576.28051937	    -41.58230368	      0.81217601	      0.00000000	     -0.11536885	      0.00000000	      1.57242350	      0.00000000
      0.84800000	      0.00000000	      0.00000000	      0.00000000	      0.00000000	      0.00000000	      0.00000000	      0.00000000	      0.00000000	      0.00000000	    -28.14579755	    575.18725097	    -41.47237986	      0.81244632	      0.00000000	     -0.11522376	      0.00000000	      1.58102187	      0.00000000
      0.84900000	      0.00000000	      0.00000000	      0.00000000	      0.00000000	      0.00000000	      0.00000000	      0.00000000	      0.00000000	      0.00000000	    -27.75743417	    574.12435859	    -41.36741068	      0.81271563	      0.00000000	     -0.11507887	      0.00000000	      1.58983235	      0.00000000
      0.85000000	      0.00000000	      0.00000000	      0.00000000	      0.00000000	      0.00000000	      0.00000000	      0.00000000	      0.00000000	      0.00000000	    -27.37050876	    573.08594137	    -41.26663730	      0.81298419	      0.00000000	     -0.11493410	      0.00000000	      1.59878514	      0.00000000
      0.85100000	      0.00000000	      0.00000000	      0.00000000	      0.00000000	      0.00000000	      0.00000000	      0.00000000	      0.00000000	      0.00000000	    -26.98522434	    572.07813486	    -41.17138442	      0.81325185	      0.00000000	     -0.11478942	      0.00000000	      1.60788248	      0.00000000
      0.85200000	      0.00000000	      0.00000000	      0.00000000	      0.00000000	      0.00000000	      0.00000000	      0.00000000	      0.00000000	      0.00000000	    -26.60113387	    571.09487057	    -41.08075760	      0.81351883	      0.00000000	     -0.11464476	      0.00000000	      1.61706811	      0.00000000
      0.85300000	      0.00000000	      0.00000000	      0.00000000	      0.00000000	      0.00000000	      0.00000000	      0.00000000	      0.00000000	      0.00000000	    -26.21840127	    570.14238462	    -40.99615589	      0.81378500	      0.00000000	     -0.11450006	      0.00000000	      1.62633329	      0.00000000
      0.85400000	      0.00000000	      0.00000000	      0.00000000	      0.00000000	      0.00000000	      0.00000000	      0.00000000	      0.00000000	      0.00000000	    -25.83665028	    569.21450794	    -40.91656096	      0.81405056	      0.00000000	     -0.11435525	      0.00000000	      1.63563857	      0.00000000
